<svg width="288" height="332" viewBox="0 0 288 332" fill="none" xmlns="http://www.w3.org/2000/svg">
<path d="M154.1 331.52C123.74 331.52 96.9067 325.387 73.6 313.12C50.6 300.853 32.5067 282.453 19.32 257.92C6.44 233.08 3.42727e-07 202.413 3.42727e-07 165.92C3.42727e-07 130.653 6.44 100.6 19.32 75.76C32.2 50.92 49.8333 32.2133 72.22 19.64C94.9133 7.06666 120.52 0.779992 149.04 0.779992C169.28 0.779992 188.447 3.84666 206.54 9.97998C224.94 16.1133 240.12 24.24 252.08 34.36V86.8C252.08 91.4 249.78 93.7 245.18 93.7C241.5 93.7 238.587 92.4733 236.44 90.02C234.6 87.26 233.067 82.9667 231.84 77.14L225.4 45.4C217.427 39.2666 207.153 34.5133 194.58 31.14C182.007 27.7667 168.667 26.08 154.56 26.08C118.373 26.08 89.7 38.3467 68.54 62.88C47.6867 87.4133 37.26 121.76 37.26 165.92C37.26 195.667 42.0133 221.12 51.52 242.28C61.3333 263.133 74.98 279.08 92.46 290.12C110.247 300.853 131.1 306.22 155.02 306.22C166.06 306.22 176.947 305.147 187.68 303C198.413 300.853 208.073 297.787 216.66 293.8V188.92H166.52C161.613 188.92 159.16 185.853 159.16 179.72C159.16 175.733 160.54 172.667 163.3 170.52C166.367 168.067 170.507 166.84 175.72 166.84H282.44C285.813 166.84 287.5 168.833 287.5 172.82C287.5 175.58 286.58 177.88 284.74 179.72C282.9 181.253 279.833 182.633 275.54 183.86L253.46 189.38V308.52C239.967 315.88 224.173 321.553 206.08 325.54C187.987 329.527 170.66 331.52 154.1 331.52Z" fill="#BA324F"/>
</svg>
