<svg width="315" height="343" viewBox="0 0 315 343" fill="none" xmlns="http://www.w3.org/2000/svg">
<path d="M315 127.393L255.97 163.555C258.518 143.274 263.81 129.838 263.81 129.838L283.252 105.648C270.894 87.7445 246.023 70.4555 246.023 70.4555C246.023 70.4555 236.101 93.2202 223.328 90.0459C227.585 83.5328 232.036 77.1617 236.849 71.1753C239.636 67.7248 242.547 64.3877 245.657 61.4288C247.197 59.927 248.816 58.5832 250.442 57.3591C252.115 56.1749 253.645 55.294 255.541 54.472C259.14 52.8521 262.929 52.359 264.877 53.4618C265.875 53.9597 266.647 54.7737 267.235 55.9307C267.52 56.4973 267.739 57.1453 267.852 57.7294C267.852 57.7326 267.854 57.7358 267.854 57.739C267.241 59.4929 267.503 61.5102 268.748 63.0678C270.674 65.4777 274.188 65.8703 276.598 63.944C277.217 63.4349 277.798 62.7167 278.157 62.0448C278.343 61.673 278.502 61.2804 278.627 60.8814L278.714 60.5845L278.753 60.4042L278.821 60.0403C278.86 59.8137 278.904 59.5152 278.914 59.3477C278.933 59.0125 278.951 58.6231 278.938 58.3342L278.882 57.5012C278.769 56.4925 278.558 55.661 278.319 54.8439C277.814 53.2527 277.125 51.8084 276.236 50.4423C274.498 47.7307 271.734 45.348 268.492 44.2276C265.257 43.0658 261.96 43.1807 259.188 43.7983C256.377 44.4127 253.932 45.4868 251.701 46.7093C250.057 47.5967 248.356 48.7298 246.814 49.9379C246.953 49.6347 247.102 49.341 247.237 49.0346C248.375 46.5306 249.358 43.8781 250.212 41.0916C251.02 38.3082 251.588 35.0301 251.748 32.1622C251.933 29.1778 251.856 26.0146 251.08 22.6344C250.329 19.302 248.736 15.577 245.71 12.5655C242.726 9.52518 238.568 7.69462 234.637 7.19349C232.647 6.92537 230.683 6.91899 228.637 7.19988C227.593 7.36586 226.547 7.57174 225.327 7.99466L224.327 8.39046C223.983 8.53729 223.525 8.77987 223.14 8.99373C222.945 9.10066 222.604 9.33048 222.352 9.50922L221.949 9.80607L221.753 9.95928L221.434 10.245C221.011 10.6408 220.614 11.0764 220.263 11.5329C219.626 12.3995 219.066 13.5805 218.801 14.6817C217.806 19.0051 220.505 23.3158 224.829 24.3085C227.492 24.9214 230.146 24.1234 232.026 22.4157C232.39 22.3423 232.77 22.2864 233.139 22.2753C234.339 22.2529 235.223 22.4795 236 22.9998C236.792 23.5073 237.62 24.5734 238.215 26.2029C238.825 27.8036 239.186 29.8433 239.299 32.017C239.422 34.3167 239.32 36.1824 238.977 38.4343C238.567 40.6543 238.03 42.9477 237.288 45.2554C235.865 49.8773 233.945 54.5215 231.84 59.1019C231.838 59.1051 231.836 59.1083 231.835 59.1115C232.21 57.4437 232.537 55.7456 232.773 53.9917C233.064 51.5275 233.094 48.7474 232.829 46.2976C232.572 43.7664 232.071 41.1426 230.986 38.479C229.926 35.8457 228.151 33.0623 225.362 31.0546C222.602 29.0182 219.072 28.0909 215.853 28.1947C214.225 28.2362 212.644 28.4867 211.046 28.9719C210.237 29.2368 209.432 29.5353 208.537 30.014L207.819 30.4386C207.573 30.5918 207.262 30.8264 206.997 31.0323C206.863 31.1344 206.643 31.3419 206.478 31.5015L206.218 31.7632L206.092 31.8973L205.897 32.1367C205.64 32.4654 205.406 32.8197 205.205 33.1836C204.855 33.8603 204.592 34.746 204.523 35.5456C204.301 38.6226 206.616 41.2974 209.693 41.5177C211.683 41.6613 213.493 40.7341 214.591 39.2355C214.594 39.2339 214.597 39.2323 214.6 39.2307C215.146 38.9929 215.803 38.8077 216.432 38.7216C217.719 38.5492 218.828 38.7248 219.801 39.2642C221.814 40.2441 223.553 43.6451 224.259 47.5296C224.656 49.5581 224.797 51.3184 224.768 53.3676C224.68 55.4009 224.489 57.4948 224.125 59.6158C223.448 63.8547 222.348 68.143 221.083 72.3946C219.731 76.9032 218.178 81.3798 216.504 85.8277C206.517 75.2992 216.817 56.6138 216.817 56.6138C210.467 54.1975 200.403 52.3925 190.345 51.0806V41.3373V38.8046H190.449L195.905 19.6802L197.3 14.787L186.711 11.6271L185.94 15.2515L168.241 9.22355L168.742 3.31373L157.326 0.0899048L145.91 3.31373L146.411 9.22355L128.712 15.2515L127.941 11.6271L117.352 14.787L118.749 19.6802L124.205 38.8046H124.103V41.3373V51.1078C114.114 52.418 104.144 54.2151 97.8369 56.6154C97.8369 56.6154 108.137 75.3024 98.1497 85.8293C96.474 81.3814 94.9211 76.9048 93.5709 72.3962C92.3069 68.1446 91.2057 63.8562 90.5291 59.6174C90.1652 57.498 89.9737 55.4025 89.8859 53.3692C89.8572 51.32 89.9976 49.5597 90.395 47.5312C91.1004 43.6483 92.84 40.2457 94.8525 39.2658C95.8276 38.7248 96.9352 38.5508 98.2232 38.7232C98.852 38.8093 99.5111 38.9961 100.055 39.2323C100.059 39.2339 100.062 39.2355 100.065 39.2371C101.163 40.7357 102.973 41.6629 104.963 41.5193C108.04 41.2974 110.354 38.6242 110.132 35.5472C110.064 34.7476 109.8 33.8619 109.451 33.1852C109.25 32.8213 109.015 32.4686 108.758 32.1383L108.563 31.8989L108.437 31.7648L108.177 31.5031C108.013 31.3435 107.793 31.1376 107.658 31.0339C107.394 30.828 107.082 30.5934 106.837 30.4402L106.118 30.0156C105.221 29.5384 104.419 29.24 103.61 28.9735C102.012 28.4883 100.432 28.2377 98.8025 28.1963C95.5834 28.0925 92.0548 29.0198 89.2938 31.0562C86.5041 33.0639 84.7294 35.8457 83.6697 38.4806C82.5844 41.1458 82.0833 43.768 81.8263 46.2992C81.5614 48.7489 81.5901 51.5291 81.8822 53.9932C82.1184 55.7472 82.4455 57.4437 82.8206 59.1131C82.819 59.1099 82.8174 59.1067 82.8158 59.1035C80.7107 54.5231 78.7892 49.8789 77.3672 45.257C76.6251 42.9492 76.0889 40.6559 75.6787 38.4359C75.3356 36.184 75.2334 34.3183 75.3563 32.0186C75.4712 29.8465 75.8319 27.8068 76.4416 26.2045C77.0369 24.5734 77.8652 23.5089 78.6568 23.0014C79.434 22.4811 80.3182 22.2545 81.5183 22.2769C81.887 22.288 82.2668 22.3439 82.6307 22.4173C84.5123 24.125 87.1648 24.9229 89.8284 24.3101C94.1519 23.3158 96.8506 19.0051 95.8563 14.6833C95.5914 13.5821 95.0328 12.4011 94.3945 11.5345C94.0417 11.078 93.646 10.6424 93.223 10.2466L92.9038 9.96088L92.7075 9.80767L92.3054 9.51082C92.0532 9.33207 91.7117 9.10066 91.517 8.99533C91.1323 8.78147 90.6743 8.53889 90.3296 8.39206L89.3305 7.99626C88.108 7.57493 87.0627 7.36745 86.0189 7.20148C83.9729 6.92059 82.0083 6.92697 80.0181 7.19509C76.0873 7.69622 71.9298 9.52519 68.9454 12.5671C65.9194 15.5786 64.3267 19.3036 63.575 22.6359C62.7994 26.0162 62.7243 29.1794 62.9079 32.1638C63.0675 35.0333 63.6356 38.3114 64.4432 41.0932C65.297 43.8797 66.2817 46.5322 67.418 49.0362C67.5537 49.3426 67.7037 49.6347 67.841 49.9395C66.3009 48.7314 64.598 47.5983 62.9542 46.7109C60.723 45.4884 58.278 44.4143 55.4675 43.7999C52.697 43.1823 49.3981 43.0673 46.1631 44.2292C42.9218 45.3496 40.1576 47.7323 38.4196 50.4438C37.5306 51.8084 36.8412 53.2543 36.3368 54.8455C36.0974 55.6626 35.8868 56.4941 35.7735 57.5028L35.7176 58.3358C35.7048 58.6247 35.7224 59.0141 35.7416 59.3493C35.7511 59.5184 35.7958 59.8153 35.8341 60.0419L35.9027 60.4058L35.941 60.5861L36.0272 60.883C36.1533 61.282 36.3113 61.6746 36.4964 62.0464C36.8555 62.7183 37.4365 63.4365 38.0557 63.9456C40.4656 65.8719 43.9799 65.4793 45.9062 63.0694C47.1526 61.5102 47.4128 59.4945 46.8015 57.7405C46.8015 57.7374 46.8015 57.7342 46.8031 57.731C46.9164 57.1469 47.1367 56.4989 47.4207 55.9323C48.0081 54.7753 48.7805 53.9597 49.778 53.4634C51.725 52.3606 55.5138 52.8537 59.1143 54.4736C61.0103 55.2956 62.5408 56.1765 64.2134 57.3607C65.8381 58.5848 67.4564 59.9286 68.998 61.4304C72.1086 64.3893 75.018 67.7264 77.8061 71.1769C82.6195 77.1633 87.069 83.5344 91.327 90.0474C78.5546 93.2218 68.6326 70.4571 68.6326 70.4571C68.6326 70.4571 43.7692 87.7445 31.4117 105.648L50.8536 129.838C50.8536 129.838 56.0788 143.108 58.6435 163.177L0.22998 127.393C0.22998 127.393 2.46432 151.15 42.7095 176.063L9.23276 167.148C9.23276 167.148 15.457 185.441 43.7947 193.215L22.7569 198.02C22.7569 198.02 28.0379 208.217 46.5254 205.17L34.8909 218.841C34.8909 218.841 43.833 222.456 52.3905 213.614L48.4342 230.752C48.4342 230.752 50.7355 230.415 53.4646 228.801C49.8881 240.164 44.6071 251.708 37.0215 262.956L56.3278 307.054C56.3278 307.054 105.304 300.453 157.331 342.39C209.357 300.453 258.334 307.054 258.334 307.054L277.64 262.956C269.957 251.564 264.636 239.869 261.058 228.364C264.086 230.362 266.796 230.752 266.796 230.752L262.839 213.614C271.395 222.456 280.337 218.841 280.337 218.841L268.703 205.17C287.192 208.218 292.472 198.02 292.472 198.02L271.434 193.215C299.773 185.441 305.996 167.148 305.996 167.148L272.519 176.063C312.764 151.15 315 127.393 315 127.393ZM167.243 21.0847L167.866 13.7433L185.027 19.5877L183.487 26.8317L180.94 38.8109H165.742L167.243 21.0847ZM146.799 13.7449L148.923 38.8141H133.725L131.178 26.8349L129.638 19.5909L146.799 13.7449Z" fill="#484948"/>
<path d="M157.333 322.406C119.071 295.428 83.1239 291.115 66.6106 290.745L55.0383 264.311C94.1376 198.129 66.925 127.09 65.7025 123.987C65.112 122.492 64.3013 121.094 63.2942 119.841L51.9534 105.729C55.9672 101.463 60.4742 97.3362 64.6795 93.7613C70.4888 100.386 78.5707 106.328 88.879 106.328C94.0483 106.326 99.0037 104.832 103.61 101.883C116.077 93.9001 119.751 80.9058 118.16 68.1175C130.672 66.0587 146.747 64.6526 157.333 64.0941C167.92 64.6542 183.993 66.0603 196.505 68.1175C194.914 80.9058 198.588 93.9001 211.056 101.883C215.662 104.832 220.619 106.328 225.786 106.328H225.789C236.09 106.326 244.168 100.391 249.976 93.7692C254.185 97.349 258.695 101.478 262.707 105.736L251.369 119.841C250.362 121.094 249.55 122.492 248.961 123.987C247.739 127.09 220.526 198.129 259.625 264.311L248.053 290.745C231.541 291.114 195.592 295.426 157.333 322.406Z" fill="#22678B"/>
<path d="M251.369 119.839L262.707 105.734C258.695 101.476 254.185 97.3473 249.976 93.7676C244.168 100.388 236.09 106.325 225.789 106.326H225.786C220.618 106.326 215.661 104.831 211.056 101.881C198.588 93.8985 194.914 80.9042 196.505 68.1158C183.993 66.0571 167.92 64.651 157.333 64.0924V322.406C195.592 295.428 231.541 291.115 248.053 290.745L259.625 264.311C220.526 198.129 247.738 127.09 248.961 123.987C249.55 122.492 250.362 121.094 251.369 119.839Z" fill="#175676"/>
<path d="M157.332 303.238C125.903 283.515 96.632 277.189 77.3114 275.394L72.8299 265.156C105.74 202.336 87.2462 137.577 81.8391 121.7C84.1548 122.089 86.5041 122.287 88.8804 122.287C97.1507 122.286 105.001 119.943 112.215 115.324C124.252 107.617 131.73 95.9333 133.851 82.0773C142.398 81.1021 151.017 80.427 157.332 80.0759C163.646 80.427 172.266 81.1037 180.814 82.0773C182.935 95.9333 190.415 107.617 202.45 115.323C209.665 119.944 217.518 122.286 225.786 122.286C228.163 122.286 230.51 122.088 232.824 121.698C227.416 137.578 208.923 202.336 241.833 265.156L237.352 275.394C218.031 277.189 188.762 283.515 157.332 303.238Z" stroke="#FFFEFF" stroke-width="5" stroke-miterlimit="10" stroke-linecap="round" stroke-linejoin="round"/>
<path d="M194.418 204.385C186.837 205.807 185.552 207.929 178.465 207.964V206.308C179.832 206.424 181.171 206.392 182.541 206.212C184.065 206.005 185.613 205.591 187.056 204.792C189.968 203.228 192.148 199.798 191.598 196.052C191.336 194.206 190.375 192.458 188.909 191.22C187.485 189.956 185.42 189.185 183.238 189.467C182.146 189.664 181.157 190.016 180.188 190.744C179.224 191.466 178.45 192.639 178.182 193.88C177.906 195.127 178.015 196.387 178.544 197.602C178.803 198.205 179.221 198.823 179.842 199.377C180.474 199.934 181.467 200.396 182.573 200.406C184.055 200.368 185.225 199.134 185.187 197.653C185.153 196.365 184.218 195.317 183.002 195.087C182.973 194.997 182.951 194.902 182.949 194.819C182.946 194.624 182.972 194.469 183.146 194.271C183.313 194.075 183.701 193.861 184.031 193.74C185.464 193.234 187.866 194.602 188.342 196.697C188.636 197.718 188.556 198.888 188.095 200.02C187.657 201.124 186.886 202.093 185.844 202.84C183.854 204.265 181.099 204.884 178.468 204.982V203.51H177.201L174.859 164.893H183.466V152.465H183.474V139.508H172.796V149.843H162.807V139.508H152.127V149.843H142.206V139.508H131.528V149.843V152.467V164.894H140.072L137.731 203.539H136.77V204.985C134.139 204.887 131.386 204.268 129.394 202.843C128.352 202.096 127.581 201.127 127.143 200.023C126.682 198.891 126.602 197.722 126.896 196.7C127.372 194.605 129.774 193.237 131.207 193.743C131.539 193.866 131.925 194.078 132.094 194.274C132.266 194.472 132.292 194.627 132.29 194.822C132.29 194.905 132.266 195.001 132.238 195.09C131.022 195.32 130.086 196.368 130.053 197.656C130.015 199.139 131.184 200.371 132.667 200.409C133.771 200.401 134.764 199.938 135.398 199.38C136.019 198.826 136.437 198.208 136.695 197.605C137.227 196.391 137.335 195.13 137.058 193.883C136.789 192.642 136.015 191.467 135.051 190.747C134.083 190.018 133.092 189.667 132.002 189.469C129.82 189.186 127.755 189.957 126.331 191.221C124.863 192.461 123.904 194.207 123.642 196.054C123.091 199.8 125.271 203.229 128.184 204.793C129.627 205.593 131.173 206.006 132.699 206.214C134.068 206.394 135.406 206.426 136.775 206.309V207.966C129.687 207.931 128.403 205.807 120.822 204.386C113.177 202.953 107.523 208.925 107.523 208.925C107.523 208.925 113.177 214.897 120.822 213.464C128.403 212.042 129.687 209.92 136.775 209.884V211.541C135.407 211.425 134.068 211.456 132.699 211.637C131.175 211.844 129.627 212.258 128.184 213.059C125.271 214.623 123.093 218.053 123.642 221.798C123.904 223.645 124.864 225.392 126.331 226.631C127.755 227.895 129.82 228.666 132.002 228.383C133.093 228.187 134.083 227.834 135.051 227.106C135.578 226.714 136.036 226.179 136.398 225.579L135.529 239.941H153.331C153.185 240.998 152.963 242.03 152.585 242.962C152.096 244.191 151.338 245.24 150.403 245.758C149.935 246.017 149.433 246.157 148.903 246.204C148.748 246.221 148.596 246.223 148.451 246.216C149.083 245.889 149.533 245.251 149.565 244.488C149.613 243.356 148.735 242.4 147.604 242.352C146.662 242.335 145.685 242.798 145.13 243.443C144.557 244.083 144.29 244.807 144.227 245.528C144.166 246.25 144.294 247.006 144.685 247.68C145.08 248.339 145.701 248.859 146.325 249.1C147.6 249.606 148.607 249.399 149.487 249.19C150.384 248.957 151.257 248.53 151.977 247.94C153.43 246.735 154.136 245.078 154.482 243.54C154.755 242.325 154.813 241.124 154.781 239.943H156.38C156.217 243.527 155.186 245.128 153.809 249.312C152.604 252.975 157.366 256.585 157.366 256.585C157.366 256.585 162.127 252.975 160.923 249.312C159.548 245.128 158.517 243.527 158.352 239.943H159.953C159.921 241.124 159.979 242.325 160.252 243.54C160.598 245.078 161.303 246.737 162.757 247.94C163.477 248.53 164.35 248.955 165.247 249.19C166.126 249.397 167.133 249.606 168.408 249.1C169.031 248.858 169.653 248.339 170.048 247.68C170.44 247.008 170.568 246.251 170.506 245.528C170.442 244.807 170.175 244.083 169.602 243.443C169.048 242.799 168.07 242.335 167.13 242.352C165.999 242.4 165.119 243.356 165.167 244.488C165.199 245.251 165.649 245.889 166.281 246.216C166.137 246.223 165.986 246.223 165.829 246.204C165.298 246.159 164.795 246.018 164.328 245.758C163.394 245.24 162.634 244.191 162.146 242.962C161.768 242.029 161.546 240.996 161.399 239.941H179.414L178.504 224.931C178.883 225.799 179.486 226.576 180.195 227.108C181.163 227.837 182.154 228.188 183.244 228.386C185.426 228.669 187.491 227.898 188.915 226.634C190.383 225.394 191.342 223.648 191.604 221.801C192.155 218.056 189.975 214.626 187.062 213.062C185.619 212.261 184.071 211.849 182.547 211.64C181.179 211.46 179.84 211.428 178.471 211.544V209.888C185.559 209.923 186.843 212.047 194.424 213.467C202.069 214.9 207.723 208.928 207.723 208.928C207.723 208.928 202.062 202.95 194.418 204.385ZM165.02 189.284H149.907V178.502C149.907 174.328 153.29 170.945 157.463 170.945C161.637 170.945 165.02 174.328 165.02 178.502V189.284ZM136.689 220.245C136.43 219.642 136.012 219.024 135.391 218.471C134.758 217.914 133.767 217.451 132.661 217.441C131.178 217.48 130.008 218.713 130.047 220.194C130.08 221.482 131.015 222.531 132.231 222.761C132.26 222.85 132.282 222.946 132.284 223.029C132.287 223.223 132.262 223.378 132.088 223.576C131.92 223.772 131.532 223.986 131.2 224.108C129.769 224.613 127.365 223.246 126.89 221.15C126.596 220.129 126.676 218.959 127.137 217.827C127.574 216.723 128.345 215.754 129.387 215.007C131.378 213.582 134.132 212.963 136.764 212.866V214.337H137.069L136.706 220.306C136.703 220.287 136.698 220.266 136.689 220.245ZM185.841 215.007C186.883 215.754 187.654 216.723 188.091 217.827C188.553 218.959 188.632 220.129 188.339 221.15C187.863 223.246 185.461 224.613 184.028 224.108C183.698 223.985 183.31 223.772 183.142 223.576C182.968 223.378 182.944 223.223 182.946 223.029C182.948 222.946 182.97 222.852 182.999 222.761C184.215 222.532 185.15 221.482 185.184 220.194C185.222 218.712 184.052 217.48 182.569 217.441C181.465 217.449 180.472 217.912 179.839 218.471C179.218 219.024 178.8 219.642 178.541 220.245C178.425 220.512 178.337 220.782 178.26 221.053L177.852 214.312H178.463V212.866C181.095 212.963 183.849 213.584 185.841 215.007Z" fill="#FFFEFF"/>
<path d="M160.432 106.859C159.832 107.941 159.52 109.103 159.366 110.247C159.23 111.275 159.206 112.279 159.294 113.307H158.051C158.078 107.988 159.671 107.022 160.738 101.332C161.814 95.595 157.331 91.3497 157.331 91.3497C157.331 91.3497 152.848 95.5934 153.923 101.332C154.991 107.022 156.584 107.988 156.611 113.307H155.368C155.456 112.279 155.432 111.275 155.296 110.247C155.14 109.103 154.83 107.941 154.23 106.859C153.055 104.673 150.481 103.037 147.671 103.45C146.285 103.647 144.973 104.368 144.043 105.469C143.095 106.538 142.516 108.087 142.728 109.726C142.876 110.544 143.14 111.288 143.687 112.016C144.228 112.739 145.109 113.32 146.041 113.522C146.976 113.73 147.923 113.648 148.834 113.249C149.287 113.055 149.75 112.742 150.167 112.276C150.585 111.8 150.933 111.057 150.939 110.227C150.91 109.114 149.985 108.235 148.872 108.265C147.907 108.291 147.118 108.993 146.946 109.906C146.879 109.927 146.807 109.944 146.745 109.946C146.598 109.947 146.482 109.928 146.335 109.799C146.188 109.673 146.027 109.382 145.936 109.133C145.556 108.058 146.582 106.256 148.156 105.898C148.922 105.678 149.801 105.737 150.65 106.084C151.48 106.411 152.206 106.99 152.766 107.772C153.836 109.266 154.3 111.334 154.374 113.308H153.269V114.683H154.345C154.236 115.552 154.058 116.405 153.746 117.171C153.379 118.093 152.809 118.88 152.109 119.269C151.758 119.464 151.381 119.569 150.982 119.603C150.866 119.616 150.752 119.617 150.644 119.612C151.119 119.367 151.456 118.888 151.48 118.315C151.515 117.466 150.856 116.748 150.007 116.713C149.3 116.7 148.567 117.048 148.151 117.53C147.722 118.01 147.521 118.554 147.473 119.095C147.426 119.638 147.522 120.205 147.816 120.711C148.113 121.205 148.579 121.595 149.046 121.777C150.004 122.156 150.759 122 151.419 121.844C152.093 121.668 152.749 121.349 153.288 120.905C154.38 120.002 154.908 118.757 155.168 117.603C155.39 116.615 155.427 115.64 155.389 114.683H156.608C156.52 117.539 155.725 118.704 154.664 121.935C153.761 124.684 157.334 127.394 157.334 127.394C157.334 127.394 160.907 124.684 160.004 121.935C158.943 118.704 158.148 117.539 158.06 114.683H159.279C159.241 115.639 159.278 116.615 159.5 117.603C159.76 118.759 160.288 120.002 161.38 120.905C161.919 121.349 162.575 121.668 163.249 121.842C163.909 121.998 164.664 122.155 165.622 121.775C166.089 121.593 166.555 121.204 166.852 120.709C167.146 120.205 167.242 119.636 167.195 119.094C167.148 118.553 166.946 118.009 166.517 117.528C166.101 117.045 165.368 116.697 164.661 116.711C163.812 116.746 163.153 117.464 163.188 118.313C163.212 118.885 163.549 119.365 164.024 119.611C163.916 119.616 163.802 119.616 163.686 119.601C163.287 119.568 162.91 119.462 162.559 119.268C161.859 118.878 161.289 118.092 160.922 117.169C160.611 116.403 160.432 115.552 160.323 114.681H161.38V113.305H160.295C160.368 111.329 160.832 109.263 161.902 107.769C162.462 106.987 163.19 106.408 164.018 106.08C164.867 105.734 165.745 105.675 166.512 105.895C168.084 106.253 169.112 108.055 168.732 109.13C168.64 109.379 168.48 109.67 168.333 109.796C168.185 109.927 168.068 109.944 167.922 109.943C167.859 109.941 167.788 109.925 167.72 109.903C167.548 108.99 166.761 108.288 165.794 108.262C164.682 108.233 163.756 109.111 163.727 110.223C163.734 111.052 164.082 111.797 164.5 112.273C164.915 112.739 165.379 113.052 165.832 113.246C166.744 113.645 167.69 113.727 168.625 113.519C169.557 113.318 170.438 112.737 170.979 112.013C171.527 111.285 171.79 110.543 171.939 109.722C172.151 108.085 171.572 106.535 170.624 105.466C169.693 104.365 168.383 103.645 166.996 103.447C164.181 103.037 161.606 104.673 160.432 106.859Z" fill="#484948"/>
<path d="M107.382 254.624C106.192 254.964 105.151 255.567 104.232 256.266C103.41 256.896 102.682 257.591 102.018 258.377L101.139 257.498C104.92 253.756 106.728 254.201 111.506 250.931C116.325 247.634 116.155 241.464 116.155 241.464C116.155 241.464 109.984 241.294 106.688 246.113C103.42 250.891 103.863 252.699 100.121 256.48L99.2414 255.601C100.03 254.935 100.722 254.209 101.353 253.387C102.052 252.468 102.654 251.427 102.995 250.237C103.71 247.86 103.048 244.884 100.767 243.187C99.6484 242.346 98.212 241.928 96.7741 242.049C95.3473 242.134 93.8423 242.82 92.8353 244.129C92.3613 244.812 92.0213 245.525 91.8937 246.425C91.7644 247.319 91.9766 248.353 92.4937 249.154C93.0076 249.962 93.7354 250.575 94.661 250.937C95.1191 251.121 95.6681 251.226 96.2921 251.191C96.9241 251.151 97.6965 250.87 98.287 250.288C99.0531 249.48 99.0196 248.205 98.2136 247.439C97.513 246.773 96.4597 246.713 95.692 247.236C95.6298 247.204 95.5659 247.164 95.5228 247.121C95.4175 247.019 95.3489 246.923 95.3361 246.727C95.3218 246.534 95.4143 246.215 95.5244 245.974C96.016 244.944 98.0173 244.397 99.3819 245.256C100.081 245.642 100.659 246.306 101.015 247.15C101.369 247.969 101.474 248.891 101.318 249.841C101.018 251.654 99.8846 253.444 98.5392 254.892L97.7588 254.111L96.7868 255.083L97.5481 255.845C96.8555 256.384 96.1277 256.858 95.3649 257.181C94.4536 257.573 93.4944 257.728 92.7235 257.506C92.3373 257.396 91.9974 257.203 91.691 256.946C91.5984 256.872 91.5186 256.793 91.4452 256.713C91.9543 256.876 92.532 256.774 92.9534 256.387C93.579 255.813 93.6205 254.838 93.0459 254.212C92.556 253.703 91.7915 253.43 91.1547 253.478C90.5116 253.513 89.9849 253.756 89.5684 254.105C89.1518 254.456 88.8182 254.925 88.6698 255.49C88.5294 256.051 88.5836 256.655 88.7863 257.115C89.1949 258.06 89.8397 258.484 90.4174 258.84C91.0175 259.193 91.7069 259.431 92.4012 259.498C93.812 259.63 95.0648 259.124 96.0655 258.492C96.9193 257.95 97.6359 257.287 98.2854 256.584L99.1473 257.445C97.0645 259.404 95.6793 259.665 92.6437 261.199C90.0599 262.505 90.6711 266.948 90.6711 266.948C90.6711 266.948 95.1143 267.559 96.4198 264.975C97.9535 261.94 98.2152 260.554 100.173 258.473L101.035 259.335C100.331 259.985 99.6675 260.701 99.1265 261.555C98.4945 262.556 97.9886 263.81 98.1211 265.221C98.1897 265.915 98.4275 266.605 98.7786 267.205C99.1345 267.782 99.559 268.427 100.504 268.836C100.963 269.038 101.568 269.093 102.129 268.952C102.693 268.804 103.163 268.47 103.514 268.054C103.863 267.637 104.106 267.111 104.141 266.467C104.189 265.832 103.916 265.066 103.407 264.576C102.781 264.002 101.808 264.042 101.232 264.669C100.844 265.09 100.743 265.668 100.906 266.177C100.826 266.104 100.746 266.022 100.673 265.931C100.414 265.625 100.223 265.285 100.113 264.899C99.8926 264.128 100.046 263.169 100.438 262.257C100.761 261.496 101.235 260.767 101.774 260.074L102.521 260.821L103.493 259.849L102.725 259.081C104.173 257.736 105.964 256.603 107.777 256.303C108.726 256.146 109.649 256.252 110.467 256.606C111.313 256.962 111.976 257.54 112.362 258.239C113.22 259.603 112.673 261.605 111.644 262.096C111.403 262.206 111.083 262.299 110.89 262.284C110.694 262.272 110.598 262.203 110.496 262.098C110.453 262.053 110.415 261.991 110.381 261.928C110.905 261.161 110.844 260.108 110.179 259.407C109.412 258.599 108.137 258.566 107.33 259.333C106.747 259.924 106.466 260.696 106.426 261.328C106.391 261.952 106.497 262.501 106.68 262.959C107.042 263.885 107.655 264.613 108.463 265.127C109.264 265.644 110.298 265.856 111.192 265.727C112.094 265.599 112.805 265.261 113.489 264.787C114.797 263.778 115.482 262.273 115.568 260.848C115.689 259.412 115.271 257.975 114.43 256.855C112.734 254.571 109.757 253.907 107.382 254.624Z" fill="#484948"/>
<path d="M211.67 250.237C212.011 251.427 212.613 252.468 213.312 253.387C213.943 254.209 214.637 254.937 215.424 255.601L214.544 256.48C210.802 252.699 211.247 250.891 207.977 246.113C204.68 241.294 198.51 241.464 198.51 241.464C198.51 241.464 198.341 247.635 203.159 250.931C207.937 254.199 209.745 253.756 213.526 257.498L212.647 258.377C211.983 257.589 211.255 256.896 210.433 256.266C209.514 255.567 208.473 254.965 207.283 254.624C204.906 253.909 201.93 254.571 200.233 256.852C199.392 257.971 198.974 259.407 199.095 260.843C199.182 262.27 199.866 263.775 201.175 264.782C201.858 265.256 202.571 265.596 203.472 265.722C204.365 265.851 205.399 265.639 206.201 265.122C207.008 264.608 207.621 263.88 207.983 262.955C208.167 262.497 208.272 261.948 208.237 261.324C208.197 260.692 207.916 259.919 207.334 259.329C206.526 258.563 205.251 258.596 204.485 259.402C203.819 260.103 203.759 261.156 204.282 261.924C204.25 261.986 204.212 262.05 204.167 262.093C204.065 262.198 203.969 262.267 203.773 262.28C203.58 262.294 203.261 262.203 203.02 262.091C201.99 261.6 201.441 259.598 202.302 258.234C202.688 257.535 203.352 256.957 204.196 256.601C205.015 256.247 205.937 256.142 206.887 256.298C208.7 256.598 210.491 257.731 211.938 259.077L211.156 259.857L212.128 260.829L212.889 260.068C213.429 260.76 213.903 261.488 214.225 262.251C214.618 263.162 214.772 264.121 214.551 264.892C214.441 265.278 214.247 265.618 213.99 265.925C213.917 266.016 213.837 266.097 213.757 266.171C213.92 265.661 213.818 265.084 213.432 264.662C212.857 264.037 211.882 263.995 211.257 264.57C210.747 265.06 210.475 265.824 210.522 266.461C210.558 267.104 210.8 267.631 211.15 268.047C211.501 268.464 211.97 268.797 212.535 268.946C213.095 269.086 213.7 269.032 214.16 268.829C215.104 268.421 215.529 267.776 215.885 267.198C216.238 266.598 216.475 265.909 216.542 265.215C216.675 263.804 216.169 262.551 215.537 261.55C214.996 260.695 214.332 259.98 213.628 259.33L214.49 258.468C216.448 260.551 216.71 261.936 218.244 264.97C219.549 267.554 223.992 266.943 223.992 266.943C223.992 266.943 224.604 262.5 222.02 261.194C218.984 259.661 217.599 259.399 215.518 257.441L216.38 256.579C217.029 257.283 217.746 257.947 218.6 258.488C219.6 259.12 220.855 259.626 222.264 259.493C222.958 259.424 223.648 259.187 224.248 258.836C224.825 258.48 225.47 258.055 225.879 257.11C226.081 256.651 226.136 256.046 225.995 255.486C225.847 254.921 225.513 254.451 225.097 254.1C224.68 253.751 224.154 253.508 223.51 253.473C222.875 253.425 222.109 253.698 221.619 254.207C221.045 254.833 221.084 255.806 221.712 256.383C222.133 256.77 222.711 256.871 223.22 256.708C223.146 256.788 223.067 256.868 222.974 256.941C222.668 257.2 222.328 257.391 221.942 257.501C221.171 257.723 220.211 257.568 219.3 257.176C218.539 256.853 217.81 256.379 217.119 255.84L217.865 255.093L216.893 254.121L216.126 254.889C214.78 253.441 213.647 251.651 213.347 249.838C213.191 248.888 213.296 247.965 213.651 247.147C214.006 246.301 214.584 245.639 215.283 245.252C216.648 244.394 218.649 244.941 219.141 245.971C219.251 246.212 219.343 246.531 219.329 246.724C219.316 246.92 219.248 247.016 219.142 247.118C219.098 247.161 219.035 247.199 218.973 247.233C218.205 246.709 217.152 246.77 216.451 247.436C215.644 248.202 215.612 249.477 216.378 250.284C216.969 250.867 217.741 251.148 218.373 251.188C218.997 251.223 219.546 251.117 220.004 250.934C220.93 250.572 221.657 249.959 222.171 249.151C222.688 248.35 222.901 247.316 222.771 246.422C222.644 245.52 222.305 244.809 221.831 244.126C220.823 242.817 219.318 242.132 217.893 242.046C216.456 241.925 215.02 242.343 213.901 243.184C211.617 244.884 210.953 247.86 211.67 250.237Z" fill="#484948"/>
</svg>
